<?xml version="1.0" encoding="iso-8859-1"?>
<!-- Generator: Adobe Illustrator 20.1.0, SVG Export Plug-In . SVG Version: 6.00 Build 0)  -->
<!DOCTYPE svg PUBLIC "-//W3C//DTD SVG 1.1//EN" "http://www.w3.org/Graphics/SVG/1.1/DTD/svg11.dtd">
<svg version="1.1" xmlns="http://www.w3.org/2000/svg" xmlns:xlink="http://www.w3.org/1999/xlink" x="0px" y="0px"
	 viewBox="0 0 540 304" style="enable-background:new 0 0 540 304;" xml:space="preserve">
<g id="Akeneo2_x5F_color">
	<g>
		<g id="FySIe3_4_">
			<g id="cI0v3x_4_">
				<g>
					<path d="M161.394,265.793c9.414,11.892,18.686,23.605,28.139,35.547c-4.823,0.826-9.308,0.792-13.776,0.113
						c-0.701-0.106-1.4-0.882-1.907-1.505c-8.527-10.499-17.022-21.024-25.527-31.541c-0.284-0.351-0.599-0.675-1.254-1.41
						c0,11.716,0,23.001,0,34.606c-4.529,0-8.75,0-13.111,0c0-32.002,0-63.764,0-95.885c4.272,0,8.535,0,13.038,0
						c0,20.191,0,40.178,0,60.164c0.141,0.048,0.282,0.096,0.423,0.145c2.331-3.04,4.671-6.074,6.993-9.121
						c5.332-6.997,10.648-14.007,16-20.989c0.453-0.591,1.07-1.347,1.71-1.459c4.48-0.78,8.976-0.677,13.784,0.05
						C177.651,245.044,169.568,255.36,161.394,265.793z"/>
					<path d="M356.317,271.169c-0.076,13.711,6.892,20.187,19.012,20.903c6.824,0.403,13.446-0.72,19.948-3.19
						c1.658,3.069,2.26,6.329,2.443,9.666c0.023,0.426-0.777,1.169-1.315,1.31c-3.666,0.959-7.322,2.103-11.06,2.607
						c-6.851,0.924-13.736,0.906-20.497-0.892c-11.623-3.09-18.792-10.559-21.35-22.262c-2.209-10.104-1.794-20.13,2.57-29.638
						c4.71-10.261,13.082-15.636,24.198-16.629c6.843-0.612,13.485,0.222,19.428,4.166c6.796,4.511,10.143,11.128,11.626,18.875
						c0.943,4.926,0.86,9.887,0.209,15.083C386.431,271.169,371.372,271.169,356.317,271.169z M356.466,261.261
						c10.903,0,21.634,0,32.347,0c1.413-8.895-5.35-17.38-14.599-17.883C364.616,242.856,357.589,248.435,356.466,261.261z"/>
					<path d="M253.908,271.196c-15.16,0-30.166,0-45.163,0c-0.387,12.643,6.089,19.142,15.792,20.519
						c7.35,1.043,14.504,0.153,21.489-2.287c0.487-0.17,0.988-0.301,1.625-0.493c1.61,3.028,2.268,6.261,2.371,9.603
						c0.014,0.443-0.776,1.185-1.315,1.325c-3.664,0.957-7.32,2.073-11.055,2.602c-6.658,0.944-13.364,0.909-19.938-0.74
						c-12.686-3.184-20.633-12.097-22.436-25.162c-1.228-8.897-0.926-17.722,2.747-26.066c4.99-11.334,13.995-16.925,26.232-17.538
						c6.508-0.326,12.702,0.717,18.173,4.512c6.994,4.851,10.432,11.879,11.385,20.06
						C254.332,261.964,253.908,266.507,253.908,271.196z M241.276,261.257c0.513-10.002-5.361-17.326-14.718-17.854
						c-8.665-0.489-16.207,3.677-17.836,17.854C219.538,261.257,230.341,261.257,241.276,261.257z"/>
					<path d="M477.312,268.105c-0.245,7.973-1.573,15.599-6.057,22.342c-4.926,7.408-12.016,11.27-20.784,12.278
						c-4.883,0.561-9.719,0.366-14.423-1.017c-9.351-2.749-15.724-8.848-18.813-18.034c-3.602-10.712-3.568-21.548,0.32-32.209
						c4.051-11.108,14.513-18.29,26.339-18.533c6.34-0.13,12.422,0.631,18.019,3.876c8.329,4.828,12.621,12.353,14.297,21.547
						C476.795,261.565,476.957,264.853,477.312,268.105z M463.374,267.535c0.04-4.775-0.553-10.017-2.823-14.952
						c-2.876-6.252-7.946-8.978-14.634-8.99c-6.715-0.011-11.952,2.704-14.499,9.082c-1.363,3.414-2.202,7.145-2.612,10.808
						c-0.751,6.697-0.257,13.355,2.439,19.679c2.656,6.228,7.46,9.206,14.149,9.352c6.959,0.152,12.179-2.576,15.163-9.062
						C462.797,278.578,463.384,273.401,463.374,267.535z"/>
					<path d="M70.921,246.338c-1.821-2.947-2.384-6.086-2.52-9.312c-0.019-0.452,0.497-1.237,0.908-1.351
						c10.379-2.871,20.876-4.192,31.404-1.042c8.52,2.549,12.976,8.727,14.011,17.401c0.356,2.985,0.388,6.021,0.398,9.034
						c0.042,12.281-0.003,24.563,0.046,36.844c0.005,1.343-0.306,1.908-1.724,2.204c-9.527,1.991-19.077,3.615-28.864,2.57
						c-6.726-0.719-13.13-2.305-17.592-7.951c-7.951-10.06-4.461-25.644,7.063-31.798c5.956-3.18,12.407-4.056,19.046-3.893
						c2.945,0.073,5.886,0.311,8.837,0.475c2.43-7.665-2.722-14.83-11.086-15.588C84.072,243.318,77.535,244.396,70.921,246.338z
						 M102.142,291.179c0-7.127,0-14.109,0-21.219c-3.058-0.258-5.987-0.636-8.924-0.719c-3.815-0.107-7.598,0.274-11.131,1.912
						c-4.816,2.232-6.886,6.749-5.934,12.865c0.657,4.22,4.353,7.531,9.002,8.071C90.805,292.745,96.399,292.389,102.142,291.179z"
						/>
					<path d="M283.516,244.351c1.586-1.76,2.946-3.431,4.471-4.934c7.932-7.819,20.721-8.087,28.779-3.882
						c5.992,3.127,8.519,8.711,9.616,15.004c0.527,3.019,0.716,6.128,0.734,9.198c0.077,13.072,0.033,26.145,0.033,39.218
						c0,0.774,0,1.548,0,2.646c-4.429,0-8.646,0-13.179,0c0-0.995,0.001-1.755,0-2.515c-0.025-13.466-0.018-26.932-0.111-40.398
						c-0.013-1.812-0.369-3.663-0.834-5.425c-1.793-6.793-6.856-9.774-13.996-8.36c-7.936,1.572-13.093,7.323-14.347,16.155
						c-0.322,2.265-0.469,4.573-0.48,6.862c-0.05,10.379-0.022,20.759-0.022,31.138c0,0.714,0,1.428,0,2.504
						c-4.418,0-8.676,0-13.077,0c-0.042-0.903-0.098-1.545-0.098-2.187c-0.005-20.956,0.017-41.912-0.043-62.867
						c-0.005-1.706,0.493-2.401,2.177-2.366c2.417,0.05,4.836,0.044,7.254,0.013c1.365-0.018,1.976,0.598,2.115,1.949
						C282.785,238.806,283.162,241.499,283.516,244.351z"/>
				</g>
			</g>
		</g>
		<g>
			<path style="fill:none;" d="M263.198,139.707c-0.108,0.108-0.213,0.219-0.313,0.334c0.016-0.018,0.727,0.227,2.043,0.797
				C264.337,140.491,263.78,140.072,263.198,139.707C263.198,139.706,263.198,139.706,263.198,139.707z"/>
			<path style="fill:none;" d="M272.272,144.477c6.571,3.586,16.196,9.615,27.606,19.035c-1.704-1.437-3.421-2.859-5.162-4.255
				C287.687,153.62,280.218,148.662,272.272,144.477z"/>
			<path style="fill:none;" d="M262.884,140.041c-17.039-6.161-31.208-13.72-42.906-22.077
				C231.267,126.136,245.368,133.931,262.884,140.041z"/>
			<path style="fill:none;" d="M319.153,61.607c1.192,14.326,0.434,30.368-2.993,48.159
				C319.876,91.59,320.396,75.487,319.153,61.607z"/>
			<path style="fill:none;" d="M317.391,153.559c-2.253-14.623-2.506-25.978-2.224-33.458c-0.472,8.969-0.034,17.923,1.21,26.845
				C316.686,149.157,317.028,151.36,317.391,153.559z"/>
			<polygon style="fill:none;" points="324.616,185.687 324.616,185.687 324.612,185.683 			"/>
			<polygon style="fill:none;" points="323.781,186.162 323.779,186.156 323.781,186.161 			"/>
			<path style="fill:none;" d="M315.712,109.864c0.016,0.687,0.091,1.38,0.087,2.065c0.184-1.422,0.337-2.159,0.361-2.163
				C316.01,109.794,315.861,109.826,315.712,109.864L315.712,109.864z"/>
			<path style="fill:#794098;" d="M280.844,109.831c0.022-0.027,0.048-0.048,0.071-0.073c-0.131,0.028-0.256,0.072-0.373,0.14
				C280.643,109.874,280.744,109.855,280.844,109.831L280.844,109.831z"/>
			<path style="fill:#9D6FB0;" d="M281.387,109.778c11.436,1.477,22.883,0.375,34.326,0.086l0,0
				c0.148-0.038,0.297-0.071,0.448-0.098c3.427-17.792,4.699-33.833,3.507-48.159c-1.599-17.863-6.634-32.035-11.045-42.176
				c-3.054-6.823-6.269-12.947-10.085-18.358c-0.141-0.059-0.279-0.14-0.426-0.162c-0.044-0.007-0.17,0.155-0.163,0.231
				c0.288,3.15,15.649,74.916-16.722,108.367c0.002-0.001,0.003-0.003,0.005-0.004L281.387,109.778z"/>
			<path style="fill:#794098;" d="M281.387,109.778l-0.155-0.273c-0.002,0.001-0.003,0.003-0.005,0.004
				c-0.118,0.065-0.22,0.151-0.311,0.249c-0.023,0.025-0.05,0.046-0.071,0.073v0l0,0c-4.585,10.725-11.799,20.412-17.97,30.2
				c0.582,0.365,1.463,0.46,2.053,0.807c1.601,0.693,4.1,1.869,7.345,3.639c7.947,4.185,14.901,9.143,21.929,14.779
				c1.741,1.396,3.972,2.818,5.676,4.255c7.343,6.062,15.424,13.527,23.904,22.65c0-0.002-0.003-0.007-0.001-0.005
				c2.438,3.195,0.762-0.546,0.832-0.473c0.001,0.001,0.003,0.003,0.004,0.004c-3.497-11.954-5.774-22.716-7.224-32.128
				c-0.363-2.199-0.191-4.403-0.5-6.613c-1.245-8.923-2.196-17.877-1.724-26.845c0.139-3.693,0.408-6.443,0.632-8.172
				c0.004-0.685,0.377-1.378,0.361-2.065C304.717,110.153,292.823,111.256,281.387,109.778z"/>
			<path style="fill:#9D6FB0;" d="M262.884,140.041c0.101-0.115,0.205-0.226,0.313-0.334l0,0
				c6.171-9.788,13.062-19.151,17.646-29.876l0,0c-0.1,0.024-0.201,0.043-0.301,0.066c-45.305,10.69-99.106-39.23-101.665-41.09
				c-0.062-0.045-0.265-0.019-0.282,0.022c-0.056,0.137-0.056,0.297-0.078,0.449c2.695,6.048,6.318,11.937,10.617,18.053
				c6.454,8.979,16.316,20.117,30.844,30.633C231.676,126.32,245.845,133.88,262.884,140.041z"/>
			<path style="fill:#622D86;" d="M357.829,68.904c-4.804-15.324-14.638-27.358-25.589-38.633
				c-10.156-10.977-21.552-20.522-33.702-29.198c0.582,1.006,5.266,7.278,10.085,18.357c4.411,10.141,8.932,24.313,10.531,42.176
				c1.243,13.88,0.723,29.984-2.993,48.159c-0.024,0.004-0.177,0.741-0.361,2.163c-0.224,1.73-0.493,4.479-0.632,8.172
				c-0.282,7.48-0.029,18.835,2.224,33.458c1.45,9.411,3.727,20.173,7.224,32.128c-0.001-0.001-0.003-0.003-0.004-0.004
				c0.16,0.506,0.43,1.407,0.488,1.649c-0.429-0.338-0.836-0.68-1.32-1.176c-0.001-0.001,0.001,0.004,0.002,0.005l0,0
				c-8.48-9.123-16.56-16.587-23.903-22.649c-11.41-9.419-21.035-15.449-27.606-19.035c-3.244-1.771-5.744-2.947-7.345-3.639
				c-1.316-0.57-2.027-0.815-2.043-0.797c-17.517-6.11-31.617-13.905-42.906-22.076c-14.527-10.516-24.389-21.654-30.844-30.633
				c-7.052-9.811-10.043-17.044-10.609-18.059c1.235,14.878,3.603,29.554,7.835,43.897c4.081,15.179,9.386,29.786,20.093,41.756
				c4.946,5.53,11.102,9.018,18.521,10.102c14.292,3.352,28.921,2.927,43.428,3.84c20.125,1.267,38.617,7.168,55.022,19.117
				c0.394,0.287,2.161,1.623,3.146,2.182c0.024-1.132-0.162-3.367-0.207-3.852c-1.869-20.208,2.525-39.115,11.737-57.053
				c6.64-12.931,14.492-25.281,18.927-39.275C359.895,83.058,360.048,75.983,357.829,68.904z"/>
		</g>
	</g>
</g>
<g id="Layer_1">
</g>
</svg>
