<svg xmlns="http://www.w3.org/2000/svg" viewBox="0 0 389.3 292.04"><defs><style>.cls-1{fill:#ff8200;}</style></defs><title>Mesa de trabajo 1</title><g id="Objects"><path class="cls-1" d="M245.18,151.62h0Z"/><circle class="cls-1" cx="310.39" cy="57.14" r="0.55"/><circle class="cls-1" cx="301.16" cy="63.74" r="1.01"/><circle class="cls-1" cx="289.92" cy="65.38" r="1.41"/><circle class="cls-1" cx="279.15" cy="61.76" r="1.79"/><path class="cls-1" d="M268.7,54A2.11,2.11,0,1,0,271,51.93l-.15,0A2.11,2.11,0,0,0,268.7,54Z"/><path class="cls-1" d="M266,41.31a2.4,2.4,0,0,0-2.4,2.4s0,.07,0,.11A2.4,2.4,0,1,0,266,41.31Z"/><path class="cls-1" d="M265.42,35a2.65,2.65,0,1,0-2.66-2.66A2.64,2.64,0,0,0,265.42,35Z"/><circle class="cls-1" cx="269.21" cy="21.6" r="2.88"/><circle class="cls-1" cx="276.74" cy="13.05" r="3.09"/><circle class="cls-1" cx="286.68" cy="7.44" r="3.26"/><circle class="cls-1" cx="297.85" cy="5.07" r="3.39"/><circle class="cls-1" cx="309.21" cy="6.14" r="3.51"/><circle class="cls-1" cx="319.8" cy="10.44" r="3.63"/><circle class="cls-1" cx="328.87" cy="17.37" r="3.7"/><circle class="cls-1" cx="335.92" cy="26.38" r="3.75"/><circle class="cls-1" cx="340.88" cy="36.69" r="3.77"/><circle class="cls-1" cx="343.98" cy="47.71" r="3.78"/><circle class="cls-1" cx="345.53" cy="59.05" r="3.76"/><circle class="cls-1" cx="345.68" cy="70.5" r="3.72"/><circle class="cls-1" cx="344.55" cy="81.9" r="3.65"/><circle class="cls-1" cx="342.26" cy="93.12" r="3.56"/><circle class="cls-1" cx="338.88" cy="104.07" r="3.43"/><circle class="cls-1" cx="334.47" cy="114.64" r="3.3"/><circle class="cls-1" cx="329.06" cy="124.74" r="3.15"/><circle class="cls-1" cx="322.73" cy="134.28" r="2.94"/><circle class="cls-1" cx="315.53" cy="143.19" r="2.73"/><circle class="cls-1" cx="307.52" cy="151.37" r="2.49"/><circle class="cls-1" cx="298.75" cy="158.75" r="2.19"/><circle class="cls-1" cx="289.35" cy="165.3" r="1.91"/><circle class="cls-1" cx="279.49" cy="171.12" r="1.57"/><circle class="cls-1" cx="269.2" cy="176.16" r="1.22"/><circle class="cls-1" cx="375.18" cy="99.15" r="0.92"/><circle class="cls-1" cx="365.32" cy="104.69" r="1.65"/><circle class="cls-1" cx="358.9" cy="114.1" r="2.26"/><circle class="cls-1" cx="355.42" cy="125" r="2.73"/><circle class="cls-1" cx="353.45" cy="136.28" r="3.11"/><circle class="cls-1" cx="351.73" cy="147.61" r="3.4"/><circle class="cls-1" cx="349.35" cy="158.81" r="3.6"/><circle class="cls-1" cx="345.49" cy="169.58" r="3.73"/><circle class="cls-1" cx="339.59" cy="179.39" r="3.78"/><circle class="cls-1" cx="331.76" cy="187.73" r="3.75"/><circle class="cls-1" cx="322.47" cy="194.4" r="3.66"/><circle class="cls-1" cx="312.16" cy="199.39" r="3.49"/><circle class="cls-1" cx="301.23" cy="202.8" r="3.24"/><circle class="cls-1" cx="289.96" cy="204.79" r="2.9"/><circle class="cls-1" cx="278.52" cy="205.48" r="2.45"/><circle class="cls-1" cx="267.08" cy="204.94" r="1.91"/><circle class="cls-1" cx="255.75" cy="203.21" r="1.23"/><circle class="cls-1" cx="244.69" cy="200.24" r="0.38"/><circle class="cls-1" cx="330.92" cy="240.25" r="1.44"/><circle class="cls-1" cx="340.82" cy="236.84" r="2.42"/><circle class="cls-1" cx="339.9" cy="226.57" r="3.11"/><circle class="cls-1" cx="329.98" cy="222.15" r="3.54"/><circle class="cls-1" cx="318.98" cy="223.68" r="3.75"/><circle class="cls-1" cx="308.42" cy="227.25" r="3.75"/><circle class="cls-1" cx="298.17" cy="231.65" r="3.55"/><circle class="cls-1" cx="287.77" cy="235.67" r="3.12"/><circle class="cls-1" cx="276.9" cy="238.17" r="2.44"/><circle class="cls-1" cx="265.78" cy="238.94" r="1.44"/><circle class="cls-1" cx="233.38" cy="279.98" r="1.68"/><circle class="cls-1" cx="241.18" cy="273.43" r="2.81"/><circle class="cls-1" cx="252.38" cy="267.65" r="3.55"/><circle class="cls-1" cx="257.57" cy="258.65" r="3.97"/><circle class="cls-1" cx="244.95" cy="254.74" r="4.11"/><circle class="cls-1" cx="232.33" cy="251.72" r="3.99"/><circle class="cls-1" cx="220.38" cy="246.69" r="3.59"/><circle class="cls-1" cx="209.49" cy="239.64" r="2.87"/><circle class="cls-1" cx="199.98" cy="230.83" r="1.73"/><circle class="cls-1" cx="231.41" cy="287.64" r="1.19"/><circle class="cls-1" cx="78.91" cy="57.14" r="0.55"/><circle class="cls-1" cx="88.14" cy="63.74" r="1.01"/><circle class="cls-1" cx="99.38" cy="65.38" r="1.41"/><circle class="cls-1" cx="110.15" cy="61.76" r="1.79"/><path class="cls-1" d="M119,52a2.1,2.1,0,1,0-.63,4.14l.17,0A2.1,2.1,0,0,0,119,52Z"/><path class="cls-1" d="M121.28,42.49a2.38,2.38,0,0,0-.33,1.05c0,.06,0,.11,0,.17a2.42,2.42,0,1,0,.34-1.22Z"/><path class="cls-1" d="M121.21,32.34A2.66,2.66,0,0,0,123.88,35l.17,0a2.66,2.66,0,1,0-2.84-2.65Z"/><circle class="cls-1" cx="120.09" cy="21.6" r="2.88"/><circle class="cls-1" cx="112.55" cy="13.05" r="3.09"/><circle class="cls-1" cx="102.62" cy="7.44" r="3.26"/><circle class="cls-1" cx="91.45" cy="5.07" r="3.39"/><circle class="cls-1" cx="80.09" cy="6.14" r="3.51"/><circle class="cls-1" cx="69.5" cy="10.44" r="3.63"/><circle class="cls-1" cx="60.43" cy="17.37" r="3.7"/><circle class="cls-1" cx="53.38" cy="26.38" r="3.75"/><circle class="cls-1" cx="48.42" cy="36.69" r="3.77"/><circle class="cls-1" cx="45.32" cy="47.71" r="3.78"/><circle class="cls-1" cx="43.77" cy="59.05" r="3.76"/><circle class="cls-1" cx="43.62" cy="70.5" r="3.72"/><circle class="cls-1" cx="44.75" cy="81.9" r="3.65"/><circle class="cls-1" cx="47.04" cy="93.12" r="3.56"/><circle class="cls-1" cx="50.41" cy="104.07" r="3.43"/><circle class="cls-1" cx="54.83" cy="114.64" r="3.3"/><circle class="cls-1" cx="60.24" cy="124.74" r="3.15"/><circle class="cls-1" cx="66.57" cy="134.28" r="2.94"/><circle class="cls-1" cx="73.77" cy="143.19" r="2.73"/><circle class="cls-1" cx="81.78" cy="151.37" r="2.49"/><circle class="cls-1" cx="90.55" cy="158.75" r="2.19"/><circle class="cls-1" cx="99.95" cy="165.3" r="1.91"/><circle class="cls-1" cx="109.81" cy="171.12" r="1.57"/><circle class="cls-1" cx="120.1" cy="176.16" r="1.22"/><path class="cls-1" d="M2.25,93.18A20.38,20.38,0,0,1,9,91.84a23.62,23.62,0,0,1,4.82.35,29.49,29.49,0,0,1,5.43,1.6,30.85,30.85,0,0,1,11,7.63A39,39,0,0,1,38,114.91a96.06,96.06,0,0,1,4.13,17.48c.27,1.63.5,3.18.81,4.85s.61,3.32.94,5c.69,3.34,1.49,6.73,2.48,10.14a90.63,90.63,0,0,0,3.69,10.23,63.55,63.55,0,0,0,5.43,9.92A50.16,50.16,0,0,0,63,181.4l1.08,1,.27.25.14.13.29.22.06.05.5.4,2,1.6.5.4.63.43,1.28.86,1.29.86c.43.29.87.57,1.28.79a69.11,69.11,0,0,0,20.79,8,108,108,0,0,0,20.11,2.25c1.59,0,3.14,0,4.68,0l4.51-.12c1.47-.08,2.92-.13,4.33-.22l2.1-.15,1-.07.26,0,.37,0,.48,0a93,93,0,0,0,15.56-2.75,69.63,69.63,0,0,0,11.88-4.33l-.43.93a41.48,41.48,0,0,1-4.45,7.17,45.26,45.26,0,0,1-8,8c-.4.34-.84.64-1.27,1s-.87.64-1.33.93l-1.32.87-1.54.91a46,46,0,0,1-6.36,3,44.69,44.69,0,0,1-7.19,2.1l-.12,0s-.16,0,.07,0h-.07l-.28,0-.57.1-.94.15c-.52.09-1.22.17-1.84.24a38.75,38.75,0,0,1-3.94.22,48.47,48.47,0,0,1-8.31-.69c-1.44-.24-2.8-.53-4.4-.91l-1.07-.26-1.13-.3-2.29-.63C95.55,212,89,209.66,82,207.94a74.46,74.46,0,0,0-10.87-1.89,44.87,44.87,0,0,0-11.38.33,34.67,34.67,0,0,0-5.62,1.42c-.68.24-1.82.67-2.65,1s-1.72.81-2.55,1.27a28.37,28.37,0,0,0-8.62,7.23,23.08,23.08,0,0,0-2.9,4.8l-.21.45-.1.27-.2.55c-.07.2-.13.33-.21.58l-.22.73a18.72,18.72,0,0,0-.62,2.77,21,21,0,0,0,1.1,10.33,20,20,0,0,0,5.41,8l.11.1.12.11.05,0,.2.16.4.32.4.32.5.35c.33.22.66.47,1,.66l1,.55a20,20,0,0,0,4,1.62,19.43,19.43,0,0,0,7.92.58,17.77,17.77,0,0,0,6.71-2.36c.44-.3.84-.53,1.28-.88a13.72,13.72,0,0,0,1.23-1,11.46,11.46,0,0,0,1.06-1.07,11,11,0,0,0,.92-1.12,14.45,14.45,0,0,0,2.29-4.58,12.58,12.58,0,0,0,.08-7l-.32-1c-.11-.28-.22-.52-.3-.71l-.25-.57.19.6c.06.2.14.44.22.73l.21,1a12,12,0,0,1-.79,6.59,13.8,13.8,0,0,1-6.94,7.12,15.34,15.34,0,0,1-5.84,1.33,16.21,16.21,0,0,1-9.52-2.84l-.71-.52c-.23-.17-.42-.36-.63-.53a14.48,14.48,0,0,1-1.31-1.27,15.15,15.15,0,0,1-3.31-13.77,12,12,0,0,1,.58-1.68l.15-.37c0-.12.16-.33.24-.49l.26-.52.13-.26c0-.05-.1.22,0,.08l0-.05.06-.1a15.77,15.77,0,0,1,2.35-3,20.32,20.32,0,0,1,6.7-4.41c.64-.27,1.29-.51,2-.71s1.13-.33,2-.55a25.38,25.38,0,0,1,4.14-.55c5.67-.31,11.71,1.18,17.66,3.36s12,5.12,18.44,7.78l2.45,1,1.24.48,1.31.48c1.57.57,3.38,1.17,5.13,1.67a64.51,64.51,0,0,0,10.83,2.13c1.83.2,3.68.31,5.52.32.94,0,1.79,0,2.81,0l1.36-.07.58,0,.29,0h.07l.21,0,.17,0a62.59,62.59,0,0,0,10.31-1.78,64.82,64.82,0,0,0,9.41-3.23l2.1-.94,2.17-1.09c.7-.34,1.37-.73,2-1.1s1.33-.74,2-1.15a66.33,66.33,0,0,0,12.9-10.27q.67-.69,1.3-1.38c-.32.56-.64,1.12-1,1.7-.92,1.37-1.84,2.84-3,4.22a48,48,0,0,1-7.89,8l-2.39,1.78-2.54,1.64-2.69,1.48-.17.09,0,0c-.16.06.17-.06.12,0l-.1,0-.41.19-.82.37c-.59.28-1,.44-1.46.63l-.68.29-.77.29c-.53.2-1,.4-1.59.59l-1.66.58-1.72.58c-2.32.78-4.77,1.59-7.26,2.54a50,50,0,0,0-7.55,3.57,29.45,29.45,0,0,0-6.9,5.46,21,21,0,0,0-1.43,1.7l-.74.94-.51.76-.64,1-.54,1c-.34.66-.65,1.33-.94,2a18.1,18.1,0,0,0-1.36,8.89,14.48,14.48,0,0,0,1.25,4.44,16.87,16.87,0,0,0,1.09,1.92,15.38,15.38,0,0,0,1.34,1.7,19.23,19.23,0,0,0,6.3,4.38,37.75,37.75,0,0,0,6.25,2.11c2,.52,3.89.91,5.67,1.33a38.07,38.07,0,0,1,9.23,3.1,18.18,18.18,0,0,1,5.8,4.57,12.18,12.18,0,0,1,2.24,4.3l.19.73.09.54.08.45v-1l-.08-.77a12.8,12.8,0,0,0-1.65-4.83,19.74,19.74,0,0,0-5.52-5.89,41,41,0,0,0-9.24-4.77c-1.74-.7-3.54-1.37-5.3-2.13a32.56,32.56,0,0,1-5.1-2.63,13.12,13.12,0,0,1-3.85-3.62,8.55,8.55,0,0,1-.57-1,10.7,10.7,0,0,1-.4-1.11,7.3,7.3,0,0,1-.22-2.23,10.2,10.2,0,0,1,1.59-4.69c.24-.38.5-.76.77-1.13l.43-.54.39-.45.6-.66c.07-.09-.05.07,0,0l0,0,.07-.06.13-.12.26-.24a11.92,11.92,0,0,1,1.07-.92c3-2.33,6.83-3.66,11.23-4.62,2.21-.47,4.54-.87,7-1.29l1.84-.32,1.89-.35c.62-.11,1.28-.26,1.92-.39l1-.21,1.06-.26c.7-.18,1.45-.36,2-.52l.87-.25.44-.12.11,0,.28-.1.24-.09,3.86-1.4,3.71-1.65c1.2-.6,2.37-1.25,3.55-1.87a65.49,65.49,0,0,0,12.35-9.13c1.82-1.66,3.42-3.45,5-5.18s2.91-3.55,4.11-5.37,2.31-3.59,3.35-5.3c.5-.87.92-1.75,1.36-2.59l.19-.38.19.38c.44.84.86,1.72,1.36,2.59,1,1.71,2.06,3.54,3.35,5.3s2.65,3.56,4.11,5.37,3.16,3.52,5,5.18A65.49,65.49,0,0,0,221,239.73c1.18.63,2.35,1.27,3.55,1.87l3.71,1.65,3.86,1.4.24.09.28.1.11,0,.44.12.87.25c.53.16,1.27.34,2,.52l1.06.26,1,.21c.64.13,1.3.28,1.92.39l1.88.35,1.84.32c2.43.42,4.75.82,7,1.29,4.4,1,8.27,2.29,11.23,4.62a11.9,11.9,0,0,1,1.07.92l.26.24.13.12.07.06,0,0s-.1-.13,0,0l.6.66.39.45.43.54c.27.37.53.74.77,1.13a10.2,10.2,0,0,1,1.59,4.69,7.31,7.31,0,0,1-.22,2.23,10.75,10.75,0,0,1-.4,1.11,8.57,8.57,0,0,1-.57,1,13.12,13.12,0,0,1-3.85,3.62,32.56,32.56,0,0,1-5.1,2.63c-1.76.76-3.57,1.43-5.3,2.13a41,41,0,0,0-9.24,4.77,19.74,19.74,0,0,0-5.52,5.89,12.8,12.8,0,0,0-1.65,4.83l-.08.77v1l.08-.45.09-.54.19-.73a12.18,12.18,0,0,1,2.24-4.3,18.18,18.18,0,0,1,5.8-4.57,38.07,38.07,0,0,1,9.23-3.1c1.78-.42,3.67-.81,5.67-1.33a37.75,37.75,0,0,0,6.25-2.11,19.23,19.23,0,0,0,6.3-4.38,15.38,15.38,0,0,0,1.34-1.7,16.87,16.87,0,0,0,1.09-1.92,14.48,14.48,0,0,0,1.25-4.44,18.1,18.1,0,0,0-1.36-8.89c-.28-.68-.6-1.35-.94-2l-.54-1-.64-1-.51-.76-.74-.94a21,21,0,0,0-1.43-1.7,29.45,29.45,0,0,0-6.9-5.46,50,50,0,0,0-7.55-3.57c-2.5-1-4.94-1.76-7.26-2.54l-1.72-.58-1.66-.58c-.56-.19-1.06-.4-1.59-.59l-.77-.29-.68-.29c-.45-.19-.86-.36-1.46-.63l-.82-.37-.41-.19-.1,0c-.05,0,.28.1.12,0l0,0-.17-.09-2.69-1.48-2.54-1.64L230,226a48.05,48.05,0,0,1-7.89-8c-1.12-1.38-2-2.85-3-4.22-.32-.58-.65-1.15-1-1.7q.63.69,1.3,1.38a66.33,66.33,0,0,0,12.9,10.27c.63.41,1.3.77,2,1.15s1.33.76,2,1.1l2.17,1.09,2.1.94a64.82,64.82,0,0,0,9.41,3.23A62.59,62.59,0,0,0,260.37,233l.17,0,.21,0h.07l.29,0,.58,0,1.36.07c1,.05,1.87,0,2.81,0,1.84,0,3.68-.13,5.52-.32a64.51,64.51,0,0,0,10.83-2.13c1.75-.5,3.56-1.1,5.13-1.67l1.31-.48,1.24-.48,2.45-1c6.47-2.66,12.45-5.6,18.44-7.78s12-3.67,17.66-3.36a25.38,25.38,0,0,1,4.14.55c.91.22,1.33.32,2,.55s1.32.45,2,.71a20.32,20.32,0,0,1,6.7,4.41,15.77,15.77,0,0,1,2.35,3l.06.1,0,.05c.07.14-.06-.13,0-.08l.13.26.26.52c.08.16.2.37.24.49l.15.37a12,12,0,0,1,.58,1.68,15.15,15.15,0,0,1-3.31,13.77,14.48,14.48,0,0,1-1.31,1.27c-.21.18-.4.36-.63.53l-.71.52a16.21,16.21,0,0,1-9.52,2.84,15.34,15.34,0,0,1-5.84-1.33,13.8,13.8,0,0,1-6.94-7.12,12,12,0,0,1-.79-6.59l.21-1c.08-.29.16-.53.22-.73l.19-.6-.25.57c-.08.19-.19.42-.3.71l-.32,1a12.58,12.58,0,0,0,.08,7,14.44,14.44,0,0,0,2.29,4.58,11,11,0,0,0,.92,1.12,11.46,11.46,0,0,0,1.06,1.07,13.71,13.71,0,0,0,1.23,1c.44.35.85.58,1.28.88a17.77,17.77,0,0,0,6.71,2.36,19.43,19.43,0,0,0,7.92-.58,20,20,0,0,0,4-1.62l1-.55c.33-.19.66-.44,1-.66l.5-.35.4-.32.4-.32.2-.16.05,0,.12-.11.11-.1a20,20,0,0,0,5.41-8,21,21,0,0,0,1.1-10.33,18.7,18.7,0,0,0-.62-2.77l-.22-.73c-.08-.25-.14-.38-.21-.58l-.2-.55-.1-.27-.21-.45a23.08,23.08,0,0,0-2.9-4.8,28.37,28.37,0,0,0-8.62-7.23c-.83-.46-1.68-.89-2.55-1.27s-2-.81-2.65-1a34.66,34.66,0,0,0-5.62-1.42,44.87,44.87,0,0,0-11.38-.33,74.46,74.46,0,0,0-10.87,1.89c-7,1.72-13.55,4.08-19.69,5.84l-2.29.63-1.13.3-1.07.26c-1.6.39-3,.67-4.4.91a48.46,48.46,0,0,1-8.31.69,38.75,38.75,0,0,1-3.94-.22c-.62-.07-1.33-.15-1.84-.24l-.94-.15-.57-.1-.28,0h-.07c.23,0,0,0,.07,0l-.12,0a44.69,44.69,0,0,1-7.19-2.1,46,46,0,0,1-6.36-3l-1.54-.91-1.32-.87c-.46-.29-.89-.62-1.33-.93s-.87-.62-1.27-1a45.26,45.26,0,0,1-8-8,41.47,41.47,0,0,1-4.45-7.17l-.43-.93a69.63,69.63,0,0,0,11.88,4.33A93,93,0,0,0,258.29,198l.48,0,.37,0,.26,0,1,.07,2.1.15c1.41.09,2.87.15,4.33.22l4.51.12c1.54,0,3.1,0,4.68,0a108,108,0,0,0,20.11-2.25,69.11,69.11,0,0,0,20.79-8c.41-.22.85-.5,1.28-.79l1.29-.86,1.28-.86.63-.43.5-.4,2-1.6.5-.4.06-.05.29-.22.14-.13.27-.25,1.08-1a50.16,50.16,0,0,0,7.55-8.89,63.55,63.55,0,0,0,5.43-9.92,90.63,90.63,0,0,0,3.69-10.23c1-3.41,1.78-6.8,2.48-10.14.33-1.67.65-3.33.94-5s.54-3.22.81-4.85a96.06,96.06,0,0,1,4.13-17.48,39,39,0,0,1,7.86-13.49,30.85,30.85,0,0,1,11-7.63,29.49,29.49,0,0,1,5.43-1.6,23.62,23.62,0,0,1,4.82-.35,20.38,20.38,0,0,1,6.7,1.34c.75.27,1.29.59,1.68.75l.57.27-.54-.33c-.36-.2-.86-.57-1.59-.93a21,21,0,0,0-6.74-2.12,24.9,24.9,0,0,0-5.11-.18,31.38,31.38,0,0,0-6,1.07,33.83,33.83,0,0,0-12.8,7,43.59,43.59,0,0,0-10.4,14,102.28,102.28,0,0,0-6.43,18.06c-.43,1.52-.86,3.14-1.31,4.65s-.92,3.07-1.4,4.61c-1,3.07-2.08,6.12-3.3,9.1a80.29,80.29,0,0,1-4.2,8.59,52,52,0,0,1-5.31,7.6,37.55,37.55,0,0,1-6.46,6.1l-.87.65-.22.16-.11.08.16-.12-.07,0-.54.35L313.95,174l-.54.34-.46.22-.9.45-.89.45a8.36,8.36,0,0,1-.94.44,54,54,0,0,1-16.76,4.35,91,91,0,0,1-16.89,0c-1.36-.12-2.71-.28-4-.42l-3.93-.54c-1.29-.21-2.56-.4-3.81-.62l-1.85-.34-.91-.17-.23,0h0l-.12,0-.48-.1a71.72,71.72,0,0,1-11.74-3.43l.26-.06.72-.17L252,174l1.62-.38,1.7-.46a113.86,113.86,0,0,0,16.34-5.75,116.83,116.83,0,0,0,19.48-10.88,118.06,118.06,0,0,0,10-7.8l2.47-2.22c.82-.72,1.68-1.6,2.52-2.41l1.27-1.24,1.09-1.16,1.08-1.16.54-.58.14-.15.2-.21.07-.08.29-.33a110.88,110.88,0,0,0,8.82-11.24,106.94,106.94,0,0,0,7.55-12.75,112.69,112.69,0,0,0,10.05-29c.28-1.26.49-2.6.71-3.93l.33-2,.23-1.83.23-1.83,0-.23,0-.25V76l0-.49.09-1c.12-1.3.22-2.61.29-3.93a91.67,91.67,0,0,0-.4-15.95,69.68,69.68,0,0,0-1.39-8c-.14-.66-.31-1.32-.49-2s-.34-1.3-.56-2l-.32-1c-.11-.34-.21-.69-.32-1l-.66-1.86a48.63,48.63,0,0,0-8.27-14.21A42.45,42.45,0,0,0,321,18.92a38.46,38.46,0,0,0-7-4.46l-1.76-.81-1.93-.75-2-.61c-.66-.17-1.32-.32-2-.48a32.36,32.36,0,0,0-8-.67,30.2,30.2,0,0,0-14.72,4.42c-.55.35-1.11.75-1.66,1.13a7.83,7.83,0,0,0-.72.55l-.64.53-.32.26-.26.22-.17.16-.68.66a14.66,14.66,0,0,0-1.29,1.36,26.32,26.32,0,0,0-4,6.09A25.75,25.75,0,0,0,271.62,40a23,23,0,0,0,1.66,6.43c.21.46.43.87.64,1.31l.16.32.13.25.1.17.42.68a10.91,10.91,0,0,0,.89,1.3,14.89,14.89,0,0,0,1,1.21,21.16,21.16,0,0,0,19.71,7,16.33,16.33,0,0,0,7.88-4.07,18.63,18.63,0,0,0,4.27-6.05,18.39,18.39,0,0,0,1.49-5.71l.06-1.24c0-.4,0-.78,0-1.14a14,14,0,0,0-.24-2,13.14,13.14,0,0,0-.77-2.56l-.35-.84.28.87a13,13,0,0,1,.56,2.57,13.61,13.61,0,0,1,.09,1.92c0,.35,0,.72,0,1.1l-.15,1.19a17.58,17.58,0,0,1-1.83,5.34,17.34,17.34,0,0,1-4.38,5.31,14.44,14.44,0,0,1-7.24,3.08,17.08,17.08,0,0,1-8.76-1.27A17.71,17.71,0,0,1,283,52.79a17.34,17.34,0,0,1-3.49-3.52,11.43,11.43,0,0,1-.71-1,7.86,7.86,0,0,1-.63-1.09l-.29-.56-.06-.12h0l0-.08-.14-.33c-.18-.44-.37-.9-.53-1.33a19.19,19.19,0,0,1-.87-5.08,20.38,20.38,0,0,1,6.11-15.06l.5-.5c.18-.16.36-.3.54-.45l.54-.45.09-.08h0l.08-.06.34-.24.68-.48a5.07,5.07,0,0,1,.64-.42l1.17-.66a23.15,23.15,0,0,1,11.49-2.5,24.52,24.52,0,0,1,6,1l1.44.47,1.4.56,1.36.66,1.44.81A30.09,30.09,0,0,1,315,25.9a33,33,0,0,1,4.2,4.79,38.37,38.37,0,0,1,5.64,11.65l.46,1.68c.09.31.14.57.2.82l.17.77c.12.5.22,1.06.32,1.61s.21,1.1.28,1.66a58.06,58.06,0,0,1,.65,6.75,79.25,79.25,0,0,1-.7,13.75c-.15,1.15-.33,2.29-.52,3.44l-.15.86-.07.43,0,.11c0-.23,0,0,0,0l0,.23L325,76.24l-.36,1.81-.4,1.62c-.27,1.07-.51,2.13-.85,3.24a97.38,97.38,0,0,1-10.56,24.36,90.07,90.07,0,0,1-7.22,10.32,92.93,92.93,0,0,1-8.07,8.83l-.26.26-.06.06s.2-.21.06-.07l-.15.13-.59.54-1.17,1.07c-.38.35-.78.73-1.15,1l-1,.86c-.71.57-1.32,1.14-2.08,1.7l-2.18,1.68a98.29,98.29,0,0,1-8.77,5.8,95.82,95.82,0,0,1-16.6,7.68,91.48,91.48,0,0,1-13.52,3.63l-1.38.27-1.31.2-1.23.19-.59.09-.28,0h-.06l.42-.07h0l-.16,0-4.27.42-2.34.23-.51.05-.7.07.26,1.91q-.51,1.12-1,2.2A51.23,51.23,0,0,0,233,170.23v.06l-.37.4-.29.32c0-.26,0-.52,0-.8a48.79,48.79,0,0,1,2.29-14.55c.31-1.06.68-2.16,1.06-3.28.73-2.11,1.57-4.32,2.55-6.63,1.47-3.56,3.37-7.25,5.3-11.15a242,242,0,0,0,11.13-26.71c1.71-5,3.33-10.24,4.66-15.72.33-1.37.65-2.76.95-4.15l.23-1,.3-1.22c.16-.67.3-1.33.45-2a69.7,69.7,0,0,0,1.2-8.48c.12-1.44.18-2.9.22-4.36V67.52l-.05-1-.11-2.37c0-.77-.14-1.45-.21-2.18-.11-1.42-.37-2.92-.59-4.41a72.59,72.59,0,0,0-2.09-8.88c-.41-1.48-1-2.92-1.47-4.38-.27-.73-.58-1.43-.87-2.15s-.59-1.44-.93-2.14a70.51,70.51,0,0,0-10.09-16,72.89,72.89,0,0,0-6.7-6.89,74.11,74.11,0,0,0-7.65-5.94,66.61,66.61,0,0,0-73.93,0A70,70,0,0,0,143.66,24,70.36,70.36,0,0,0,133.58,40c-.34.7-.64,1.42-.93,2.14s-.6,1.43-.87,2.15c-.51,1.46-1.06,2.9-1.47,4.38a73.14,73.14,0,0,0-2.09,8.88c-.21,1.49-.48,3-.59,4.46-.07.74-.16,1.48-.21,2.23l-.11,2.22a72.46,72.46,0,0,0,.17,8.77,69.67,69.67,0,0,0,1.2,8.48q.21,1,.45,2.06l.28,1.16.24,1.08c.32,1.47.62,2.77,1,4.15,1.33,5.49,2.95,10.73,4.66,15.72a242.16,242.16,0,0,0,11.13,26.72c1.9,3.86,3.82,7.57,5.29,11.14,1,2.31,1.82,4.52,2.55,6.64.39,1.12.75,2.22,1.06,3.28a48.77,48.77,0,0,1,2.29,14.56c0,.53,0,1-.06,1.46l-.26-.28L157,171c0-.27,0-.53-.08-.82A51.25,51.25,0,0,0,153,156.44c-.43-1-.93-2.14-1.45-3.24l.12-.86-.55-.05,0,0-1.12-.07-1.86-.18-3.26-.32c-.95-.12-1.48-.21-1.48-.21v.05l-.24,0-1.23-.19-1.31-.2-1.38-.27a91.48,91.48,0,0,1-13.52-3.63,95.82,95.82,0,0,1-16.6-7.68,98.27,98.27,0,0,1-8.77-5.8L98.18,132c-.76-.57-1.37-1.13-2.08-1.7l-1-.86c-.36-.32-.77-.7-1.15-1l-1.17-1.07-.59-.54-.15-.13c-.14-.14.11.12.06.07l-.06-.06-.26-.26a92.94,92.94,0,0,1-8.07-8.83,90.08,90.08,0,0,1-7.22-10.32A97.38,97.38,0,0,1,65.89,82.91c-.34-1.11-.58-2.17-.85-3.24l-.4-1.62-.36-1.81-.36-1.81,0-.23s0-.21,0,0l0-.11-.07-.43-.15-.86c-.19-1.14-.37-2.29-.52-3.44a79.23,79.23,0,0,1-.7-13.75,58.06,58.06,0,0,1,.65-6.75c.08-.56.18-1.11.28-1.66s.2-1.11.32-1.61l.17-.77c.06-.25.11-.51.2-.82l.46-1.68a38.37,38.37,0,0,1,5.64-11.65,33,33,0,0,1,4.2-4.79,30.09,30.09,0,0,1,4.91-3.73l1.44-.81L82,20.71l1.4-.56,1.44-.47a24.52,24.52,0,0,1,6-1,23.15,23.15,0,0,1,11.49,2.5l1.17.66a5.07,5.07,0,0,1,.64.42l.68.48.34.24.08.06h0l.09.08.54.45c.18.15.37.29.54.45l.5.5a20.38,20.38,0,0,1,6.11,15.06,19.19,19.19,0,0,1-.87,5.08c-.16.43-.36.89-.53,1.33l-.13.33,0,.08h0l-.06.12-.29.56a7.87,7.87,0,0,1-.63,1.09,11.41,11.41,0,0,1-.71,1,17.34,17.34,0,0,1-3.49,3.52,17.72,17.72,0,0,1-4.16,2.41,17.08,17.08,0,0,1-8.76,1.27,14.44,14.44,0,0,1-7.24-3.08,17.34,17.34,0,0,1-4.38-5.31,17.59,17.59,0,0,1-1.83-5.34l-.15-1.19c0-.38,0-.75,0-1.1a13.61,13.61,0,0,1,.09-1.92A13,13,0,0,1,80.41,36l.28-.87-.35.84a13.13,13.13,0,0,0-.77,2.56,14,14,0,0,0-.24,2c0,.36-.05.74,0,1.14l.06,1.24a18.39,18.39,0,0,0,1.49,5.71,18.63,18.63,0,0,0,4.27,6.05A16.33,16.33,0,0,0,93,58.65a21.16,21.16,0,0,0,19.71-7,14.87,14.87,0,0,0,1-1.21,10.9,10.9,0,0,0,.89-1.3l.42-.68.1-.17.13-.25.16-.32c.21-.44.43-.85.64-1.31A23,23,0,0,0,117.68,40a25.75,25.75,0,0,0-2.32-13.45,26.32,26.32,0,0,0-4-6.09,14.66,14.66,0,0,0-1.29-1.36l-.68-.66-.17-.16L109,18l-.32-.26-.64-.53a7.88,7.88,0,0,0-.72-.55c-.55-.38-1.11-.78-1.66-1.13a30.2,30.2,0,0,0-14.72-4.42,32.36,32.36,0,0,0-8,.67c-.66.16-1.32.31-2,.48l-2,.61-1.93.75-1.76.81a38.47,38.47,0,0,0-7,4.46,42.46,42.46,0,0,0-5.87,5.74A48.63,48.63,0,0,0,54.2,38.87l-.66,1.86c-.1.27-.21.62-.32,1l-.32,1c-.22.69-.39,1.34-.56,2s-.35,1.31-.49,2a69.65,69.65,0,0,0-1.39,8,91.67,91.67,0,0,0-.4,15.95c.07,1.32.17,2.62.29,3.93l.09,1,0,.49v.12l0,.25,0,.23.23,1.83L51,80.26l.33,2c.22,1.33.43,2.68.71,3.93a112.69,112.69,0,0,0,10.05,29,106.94,106.94,0,0,0,7.55,12.75,110.87,110.87,0,0,0,8.82,11.24l.29.33.07.08.2.21.14.15.54.58,1.08,1.16,1.09,1.16,1.27,1.24c.84.81,1.69,1.69,2.52,2.41l2.47,2.22a118,118,0,0,0,10,7.8,116.83,116.83,0,0,0,19.48,10.88A113.86,113.86,0,0,0,134,173.15l1.7.46,1.62.38,1.52.36.72.17.26.06A71.72,71.72,0,0,1,128.09,178l-.48.1-.12,0h0l-.23,0-.91.17-1.85.34c-1.25.22-2.51.41-3.81.62l-3.93.54c-1.32.13-2.67.29-4,.42a91,91,0,0,1-16.89,0,54,54,0,0,1-16.76-4.35,8.35,8.35,0,0,1-.94-.44l-.89-.45-.9-.45-.46-.22-.54-.34-2.16-1.38-.54-.35-.07,0,.18.14h0l-.11-.08-.22-.16-.87-.65a37.55,37.55,0,0,1-6.46-6.1,52,52,0,0,1-5.31-7.6,80.29,80.29,0,0,1-4.2-8.59c-1.23-3-2.31-6-3.3-9.1-.49-1.54-1-3.08-1.4-4.61s-.88-3.14-1.31-4.65a102.26,102.26,0,0,0-6.43-18.06,43.59,43.59,0,0,0-10.4-14,33.83,33.83,0,0,0-12.8-7,31.38,31.38,0,0,0-6-1.07,24.9,24.9,0,0,0-5.11.18,21,21,0,0,0-6.74,2.12c-.73.36-1.22.73-1.59.93L0,94.2l.57-.27C1,93.77,1.49,93.45,2.25,93.18Zm220.11,46.39a8.33,8.33,0,0,1-16.45,2.58Zm-55.36,0,16.45,2.58A8.33,8.33,0,1,1,167,139.56Z"/><circle class="cls-1" cx="14.12" cy="99.15" r="0.92"/><circle class="cls-1" cx="23.98" cy="104.69" r="1.65"/><circle class="cls-1" cx="30.4" cy="114.1" r="2.26"/><circle class="cls-1" cx="33.88" cy="125" r="2.73"/><circle class="cls-1" cx="35.85" cy="136.28" r="3.11"/><circle class="cls-1" cx="37.57" cy="147.61" r="3.4"/><circle class="cls-1" cx="39.95" cy="158.81" r="3.6"/><circle class="cls-1" cx="43.81" cy="169.58" r="3.73"/><circle class="cls-1" cx="49.71" cy="179.39" r="3.78"/><circle class="cls-1" cx="57.54" cy="187.73" r="3.75"/><circle class="cls-1" cx="66.83" cy="194.4" r="3.66"/><circle class="cls-1" cx="77.13" cy="199.39" r="3.49"/><circle class="cls-1" cx="88.07" cy="202.8" r="3.24"/><circle class="cls-1" cx="99.34" cy="204.79" r="2.9"/><circle class="cls-1" cx="110.78" cy="205.48" r="2.45"/><circle class="cls-1" cx="122.22" cy="204.94" r="1.91"/><circle class="cls-1" cx="133.55" cy="203.21" r="1.23"/><circle class="cls-1" cx="144.61" cy="200.24" r="0.38"/><circle class="cls-1" cx="58.38" cy="240.25" r="1.44"/><circle class="cls-1" cx="48.48" cy="236.84" r="2.42"/><circle class="cls-1" cx="49.4" cy="226.57" r="3.11"/><circle class="cls-1" cx="59.32" cy="222.15" r="3.54"/><circle class="cls-1" cx="70.32" cy="223.68" r="3.75"/><circle class="cls-1" cx="80.88" cy="227.25" r="3.75"/><circle class="cls-1" cx="91.13" cy="231.65" r="3.55"/><circle class="cls-1" cx="101.53" cy="235.67" r="3.12"/><circle class="cls-1" cx="112.39" cy="238.17" r="2.44"/><circle class="cls-1" cx="123.52" cy="238.94" r="1.44"/><circle class="cls-1" cx="155.92" cy="279.98" r="1.68"/><circle class="cls-1" cx="148.12" cy="273.43" r="2.81"/><circle class="cls-1" cx="136.92" cy="267.65" r="3.55"/><circle class="cls-1" cx="131.73" cy="258.65" r="3.97"/><circle class="cls-1" cx="144.35" cy="254.74" r="4.11"/><circle class="cls-1" cx="156.97" cy="251.72" r="3.99"/><circle class="cls-1" cx="168.92" cy="246.69" r="3.59"/><circle class="cls-1" cx="179.81" cy="239.64" r="2.87"/><circle class="cls-1" cx="189.32" cy="230.83" r="1.73"/><path class="cls-1" d="M194.65,225.64h.07a1.19,1.19,0,0,0,0-2.38h-.14a1.19,1.19,0,0,0,0,2.38Z"/><circle class="cls-1" cx="157.89" cy="287.64" r="1.19"/></g></svg>